<svg width="50" height="50" viewBox="0 0 50 50" fill="none" xmlns="http://www.w3.org/2000/svg">
<path d="M43.2643 4.16501H6.73425L9.95749 41.4487L24.9993 45.835L40.041 41.4487L43.2643 4.16501Z" fill="#0277BD"/>
<path d="M24.9993 7.29025V42.2711L37.0327 38.7621L39.7187 7.29025H24.9993Z" fill="#039BE5"/>
<path d="M34.7764 12.9376H24.9992V17.3239H30.2638L29.9415 21.7102H24.9992V26.0965H29.7266L29.4043 31.0311L24.9992 32.5663V37.172L33.4871 34.3208L34.2391 21.7102L34.7764 12.9376Z" fill="white"/>
<path d="M24.9993 12.9376V17.3239H15.437L15.1147 12.9376H24.9993ZM20.057 21.7102L20.2719 26.0965H24.9993V21.7102H20.057ZM20.4867 28.2897H16.1891L16.5114 34.3208L24.9993 37.172V32.5663L20.5942 31.0311L20.4867 28.2897Z" fill="#EEEEEE"/>
</svg>
