<svg width="50" height="50" viewBox="0 0 50 50" fill="none" xmlns="http://www.w3.org/2000/svg">
<path d="M26.0355 18.055H17.7555C13.7542 18.055 10.5105 14.9456 10.5105 11.11C10.5105 7.27439 13.7542 4.16501 17.7555 4.16501H26.0355V18.055Z" fill="#E64A19"/>
<path d="M25.0005 31.9451H17.7555C13.7542 31.9451 10.5105 28.8357 10.5105 25.0001C10.5105 21.1644 13.7542 18.0551 17.7555 18.0551H25.0005V31.9451Z" fill="#7C4DFF"/>
<path d="M17.7555 45.835C13.7542 45.835 10.5105 42.7256 10.5105 38.89C10.5105 35.0544 13.7542 31.945 17.7555 31.945H25.0005V38.89C25.0005 42.7256 21.7568 45.835 17.7555 45.835Z" fill="#66BB6A"/>
<path d="M32.2455 18.055H25.0005V4.16501H32.2455C36.2468 4.16501 39.4905 7.27439 39.4905 11.11C39.4905 14.9456 36.2468 18.055 32.2455 18.055Z" fill="#FF7043"/>
<path d="M32.2455 31.9451C36.2468 31.9451 39.4905 28.8357 39.4905 25.0001C39.4905 21.1644 36.2468 18.0551 32.2455 18.0551C28.2442 18.0551 25.0005 21.1644 25.0005 25.0001C25.0005 28.8357 28.2442 31.9451 32.2455 31.9451Z" fill="#29B6F6"/>
</svg>
