<svg width="50" height="50" viewBox="0 0 50 50" fill="none" xmlns="http://www.w3.org/2000/svg">
<path d="M45.4953 24.3279L25.6028 4.36827C25.334 4.09945 24.6619 4.09945 24.2588 4.36827L18.748 9.87904L23.8555 14.9866C24.2588 14.7849 24.7292 14.7177 25.1996 14.7177C27.0813 14.7177 28.4925 16.2634 28.4925 18.0107C28.4925 18.4812 28.4255 18.9516 28.2238 19.3548L32.3232 23.4544C32.7265 23.2527 33.1969 23.1854 33.6673 23.1854C35.549 23.1854 36.9603 24.7312 36.9603 26.4785C36.9603 28.3602 35.4146 29.7715 33.6673 29.7715C31.7857 29.7715 30.3744 28.2258 30.3744 26.4785C30.3744 26.0081 30.4415 25.5377 30.6432 25.1344L26.5436 21.035H26.4765V28.7635C27.6861 29.301 28.5598 30.4435 28.5598 31.8548C28.5598 33.7365 27.014 35.1479 25.2667 35.1479C23.385 35.1479 21.9738 33.6021 21.9738 31.8548C21.9738 30.4435 22.8473 29.234 24.0571 28.7635V21.2365C22.8473 20.6989 21.9738 19.5565 21.9738 18.1452C21.9738 17.6747 22.0411 17.2043 22.2425 16.8011L17.1351 11.6935L4.43342 24.3279C4.16461 24.5969 4.16461 25.2687 4.43342 25.6721L24.3932 45.6317C24.6619 45.9006 25.334 45.9006 25.7371 45.6317L45.6296 25.6721C45.8313 25.2687 45.8313 24.7312 45.4953 24.3279Z" fill="#F4511E"/>
</svg>
