<svg width="50" height="50" viewBox="0 0 50 50" fill="none" xmlns="http://www.w3.org/2000/svg">
<path d="M25 4.68546C13.5753 4.68546 4.16669 13.9597 4.16669 25.5187C4.16669 34.6585 10.1479 42.4544 18.4812 45.2769C19.5565 45.4785 19.8925 44.8065 19.8925 44.336C19.8925 43.8656 19.8925 42.5215 19.8253 40.7069C14.0457 42.051 12.836 37.8844 12.836 37.8844C11.8952 35.5323 10.4839 34.8602 10.4839 34.8602C8.60217 33.516 10.5511 33.516 10.5511 33.516C12.6344 33.5833 13.7769 35.6667 13.7769 35.6667C15.5914 38.8925 18.6828 37.9517 19.8253 37.3467C20.0269 36.0027 20.5645 35.0619 21.1694 34.5242C16.5995 34.0537 11.6936 32.2392 11.6936 24.3092C11.6936 22.0242 12.5672 20.2097 13.8441 18.7984C13.6425 18.3279 12.9032 16.1774 14.0457 13.2876C14.0457 13.2876 15.8602 12.75 19.8253 15.4381C21.5054 14.9677 23.2527 14.6989 25.0673 14.6989C26.8817 14.6989 28.6963 14.9005 30.3092 15.4381C34.2742 12.8172 36.0215 13.2876 36.0215 13.2876C37.164 16.1102 36.4919 18.3279 36.2231 18.7984C37.5673 20.2097 38.3738 22.0915 38.3738 24.3092C38.3738 32.2392 33.4677 34.0537 28.8979 34.5242C29.6371 35.1962 30.3092 36.5402 30.3092 38.4221C30.3092 41.2446 30.2419 43.4623 30.2419 44.1344C30.2419 44.6721 30.6452 45.2769 31.6531 45.0752C39.8521 42.3198 45.8334 34.5915 45.8334 25.3844C45.7661 13.9597 36.4248 4.68546 25 4.68546Z" fill="#040C0C"/>
</svg>
