<svg width="50" height="50" viewBox="0 0 50 50" fill="none" xmlns="http://www.w3.org/2000/svg">
<path d="M43.53 4H7L10.2232 41.2837L25.265 45.67L40.3068 41.2837L43.53 4Z" fill="#E65100"/>
<path d="M25.265 7.28973V42.2706L37.2984 38.7616L39.9844 7.28973H25.265Z" fill="#FF6D00"/>
<path d="M25.265 25.9315V21.5452H34.5049L33.7528 34.1558L25.265 37.0069V32.4013L29.67 30.8661L29.9924 25.9315H25.265ZM34.8272 17.1589L35.1495 12.7726H25.265V17.1589H34.8272Z" fill="white"/>
<path d="M25.2649 32.4013V37.0069L16.7771 34.1558L16.3473 28.1247H20.645L20.8599 30.8661L25.2649 32.4013ZM20.0003 17.1589H25.2649V12.7726H15.4878L16.2399 25.9315H25.2649V21.5452H20.3226L20.0003 17.1589Z" fill="#EEEEEE"/>
</svg>
