<svg width="50" height="50" viewBox="0 0 50 50" fill="none" xmlns="http://www.w3.org/2000/svg">
<rect x="7" y="7" width="36" height="36" fill="black"/>
<path d="M6.25 6.25V43.75H43.75V6.25H6.25ZM26.6935 35.4637C26.6935 39.1531 24.516 40.8469 21.371 40.8469C18.5887 40.8469 16.9556 39.3952 16.1089 37.5806L19.0121 35.766C19.496 36.7944 20.0403 37.5806 21.3104 37.5806C22.5202 37.5806 23.1854 37.1573 23.1854 35.3427V23.4879H26.6935V35.4637ZM35.0404 40.8469C31.7742 40.8469 29.6573 39.2137 28.5685 37.2781L31.4719 35.5846C32.2581 36.7944 33.2862 37.7017 34.9798 37.7017C36.4315 37.7017 37.3387 37.0362 37.3387 35.8871C37.3387 34.6775 36.4315 34.254 34.7983 33.5281L33.9517 33.1654C31.4113 32.1371 29.7177 30.6854 29.7177 27.7823C29.7177 25.121 31.6531 23.1854 34.859 23.1854C37.0969 23.1854 38.6694 23.9719 39.8185 26.0281L37.0969 27.8427C36.4919 26.8146 35.8871 26.3306 34.7983 26.3306C33.7702 26.3306 33.1048 26.996 33.1048 27.8427C33.1048 28.871 33.7702 29.2944 35.2219 29.9596L36.0685 30.3225C39.0323 31.5927 40.7862 32.8629 40.7862 35.8871C40.8469 39.0927 38.3669 40.8469 35.0404 40.8469Z" fill="#FFD600"/>
</svg>
