<svg width="50" height="50" viewBox="0 0 50 50" fill="none" xmlns="http://www.w3.org/2000/svg">
<path d="M43.7902 24.6986C43.7902 22.2899 41.9687 20.263 39.5235 19.6846L45 5H17.8596L23.3486 19.731C20.9802 20.356 19.2344 22.3476 19.2344 24.7108C19.2344 26.4475 20.1901 27.9875 21.6418 28.9369C21.0693 29.6781 20.4064 30.3617 19.6554 31.0099C18.2418 32.2149 16.6741 33.1408 14.9808 33.7549C13.4525 32.8167 12.7906 31.1605 13.3888 29.6778C15.7193 29.0296 17.4142 27.0493 17.4142 24.7218C17.4142 21.8619 14.8539 19.545 11.7198 19.545C8.57387 19.545 6.01515 21.8728 6.01515 24.7337C6.01515 26.1469 6.65116 27.4433 7.67064 28.3692C7.58126 28.532 7.4925 28.6933 7.40311 28.8671C6.5499 30.466 5.58167 32.2725 5.21163 34.2994C4.47311 38.3518 5.68293 41.6068 8.59949 43.4478C10.2428 44.4789 12.0521 45 14.0007 45C17.3492 45 20.7505 43.4709 24.0359 41.9882C26.3799 40.9352 28.7995 39.8342 31.1813 39.3021C32.0605 39.1052 32.9771 38.989 33.9454 38.8619C35.9059 38.6073 37.9314 38.3408 39.7529 37.3795C41.8797 36.2565 43.3314 34.3799 43.7524 32.2261C44.0696 30.5696 43.7524 28.9025 42.9367 27.4433C43.4938 26.637 43.7919 25.6793 43.7902 24.6986ZM41.3071 24.6986C41.3071 26.3081 39.8676 27.6171 38.0974 27.6171C36.3272 27.6171 34.8877 26.3081 34.8877 24.6986C34.8877 24.1772 35.0405 23.6797 35.3077 23.2513C35.4093 23.0884 35.5374 22.9272 35.664 22.7878C35.7982 22.6445 35.9477 22.5165 36.11 22.4061L36.1234 22.3939C36.2247 22.3244 36.3394 22.2546 36.4541 22.186C36.4541 22.186 36.4666 22.186 36.4666 22.1738C36.5175 22.1506 36.5688 22.1162 36.6203 22.093C36.6325 22.093 36.6447 22.0808 36.6578 22.0808C36.7094 22.0588 36.7729 22.0357 36.836 22.0122C36.8963 21.9911 36.9558 21.9679 37.0144 21.9427C37.0269 21.9427 37.0401 21.9301 37.0523 21.9301C37.1035 21.9195 37.1548 21.896 37.2051 21.8851C37.2185 21.8851 37.2442 21.8728 37.2563 21.8728C37.3198 21.8619 37.371 21.8497 37.4345 21.8384H37.4479L37.6386 21.803C37.6517 21.803 37.6761 21.803 37.6895 21.7921C37.7408 21.7921 37.7911 21.7798 37.8423 21.7798H37.9058C37.9692 21.7798 38.0339 21.7689 38.1096 21.7689H38.2755C38.3255 21.7689 38.3649 21.7689 38.4149 21.7798H38.4405C38.543 21.7924 38.6443 21.803 38.7468 21.8265C40.1985 22.1039 41.3071 23.2857 41.3071 24.6986ZM21.4121 7.31566H41.4462L36.8485 19.6492C36.6578 19.6846 36.4663 19.7419 36.2759 19.7996L31.4367 10.825L26.5836 19.7416C26.392 19.6843 26.1883 19.6489 25.9854 19.6145L21.4121 7.31566ZM30.5184 23.6903C30.2768 22.6015 29.6652 21.6292 28.7995 20.9112L31.4367 16.071L34.0979 21.0152C33.3081 21.7332 32.7352 22.6482 32.5058 23.6903H30.5184ZM24.1384 21.8616C24.2018 21.849 24.2531 21.8384 24.3165 21.8262H24.3543C24.4056 21.8152 24.4571 21.8152 24.5072 21.8027H24.5584C24.6097 21.8027 24.6475 21.7917 24.6987 21.7917H25.1957C25.2457 21.7917 25.2847 21.8027 25.3226 21.8027C25.3482 21.8027 25.3604 21.8027 25.386 21.8152C25.4373 21.8262 25.4751 21.8262 25.5266 21.8384C25.5385 21.8384 25.552 21.8384 25.5776 21.8494C25.6413 21.8616 25.7048 21.8725 25.7557 21.8847H25.7682C25.8195 21.8957 25.8707 21.9067 25.9207 21.9301C25.9342 21.9301 25.9464 21.9424 25.972 21.9424C26.0098 21.9533 26.0611 21.9655 26.0989 21.9887C26.1123 21.9887 26.1245 21.9997 26.138 21.9997C26.188 22.0231 26.2395 22.0354 26.2908 22.0585H26.303C26.3664 22.0805 26.4177 22.1036 26.4689 22.1393H26.4814C26.5324 22.1625 26.5836 22.1966 26.6349 22.2198C26.6474 22.2198 26.6474 22.2323 26.6593 22.2323C26.7105 22.2542 26.7486 22.2896 26.7999 22.3128L26.8133 22.3238C26.9659 22.428 27.1062 22.5442 27.2453 22.6604L27.2587 22.6713C27.3859 22.7985 27.5128 22.9378 27.6153 23.0884C27.9463 23.5519 28.1379 24.0964 28.1379 24.687C28.1379 26.2969 26.6983 27.6045 24.9281 27.6045C23.1579 27.6045 21.7184 26.2969 21.7184 24.687C21.7053 23.3318 22.737 22.1857 24.1384 21.8616ZM11.6051 21.7795C13.3756 21.7795 14.8149 23.0884 14.8149 24.698C14.8149 26.3078 13.3756 27.6164 11.6051 27.6164C9.83494 27.6164 8.39541 26.3078 8.39541 24.698C8.39541 23.0884 9.83494 21.7795 11.6051 21.7795ZM41.2302 31.8209C40.9505 33.3021 39.9432 34.6 38.4662 35.3754C37.0779 36.1056 35.3711 36.3367 33.5753 36.5681C32.5952 36.6953 31.5635 36.8346 30.5697 37.0547C27.9206 37.6456 25.3738 38.8039 22.9029 39.9146C19.7445 41.3397 16.7632 42.6828 14.0007 42.6828C12.5612 42.6828 11.2745 42.3123 10.0525 41.5367C7.2506 39.7765 7.38967 36.4764 7.7219 34.6696C8.02693 32.978 8.88046 31.3916 9.69586 29.8748C9.74587 29.7818 9.78493 29.701 9.83494 29.608C10.1159 29.701 10.4088 29.7708 10.7141 29.8172C10.2306 32.2722 11.6051 34.808 14.2801 36.0593L14.7645 36.2904L15.2862 36.1166C17.5155 35.3985 19.5785 34.2293 21.3999 32.6658C22.4316 31.7852 23.3108 30.8361 24.0493 29.805C24.3421 29.8516 24.6353 29.8638 24.9281 29.8638C27.5775 29.8638 29.8055 28.2073 30.4428 25.9837H32.5818C33.219 28.2186 35.448 29.8635 38.0974 29.8635C39.1547 29.8635 40.1351 29.5973 40.9749 29.1458C41.3071 30.0141 41.4084 30.9169 41.2302 31.8209Z" fill="#99425B"/>
</svg>
