<svg width="50" height="50" viewBox="0 0 50 50" fill="none" xmlns="http://www.w3.org/2000/svg">
<path d="M24.9149 4.005C19.7942 3.90531 14.9099 5.28387 10.7305 9.22599C1.98467 17.4789 1.72434 31.6093 10.1717 40.1668C11.6922 41.7072 13.5018 43.1322 15.4887 44C16.0077 42.2196 15.9067 40.0702 15.7424 37.9573C15.7029 37.9156 15.6621 37.8743 15.632 37.8282C15.0768 36.9839 15.4887 34.7799 15.4887 33.7772C18.9808 34.4088 21.825 36.3684 25.5633 35.2302C29.2217 34.1162 30.7465 28.7334 27.5212 26.1852C25.5734 24.6455 22.6836 24.8555 20.3865 25.1378C19.0069 25.3078 17.2843 25.8274 16.332 24.3304C15.7698 23.4493 16.35 21.2865 16.4444 20.2896C16.4678 20.0384 16.4936 19.7823 16.518 19.53C16.7626 16.4342 17.1685 13.305 17.1685 10.2075H32V4.95545C29.6189 4.40068 27.2424 4.05109 24.9149 4.005Z" fill="#DC514A"/>
<path d="M31.9223 5V14.1866H20.8796L20.3058 21.2519C22.7562 21.0616 25.0279 20.6331 27.4766 21.2034C29.1552 21.5952 30.7308 22.3805 31.8966 23.6551C35.1502 27.2076 34.51 33.8763 30.7747 36.8725C29.7236 37.7158 28.5225 38.2698 27.2543 38.626C26.0834 38.9968 24.907 39.1538 23.7265 39.1647C23.3037 39.1874 22.8804 39.1992 22.457 39.2C20.6184 39.2 18.7795 38.9632 17.0074 38.472C16.5568 38.3468 15.8597 38.1728 15.4215 37.8478C15.3287 37.8281 15.2356 37.8067 15.1428 37.7867L15 43.7224C26.3806 49.7018 40.8785 43.3041 44.9607 31.5692C48.4115 21.6522 43.0674 7.60298 31.9223 5Z" fill="#23A161"/>
</svg>
