<svg width="50" height="50" viewBox="0 0 50 50" fill="none" xmlns="http://www.w3.org/2000/svg">
<path fill-rule="evenodd" clip-rule="evenodd" d="M6.36188 22.6713C6.36188 22.88 6.42333 23.0178 6.45777 23.1517C6.68221 24.0224 7.16463 24.7696 7.737 25.4512C8.55222 26.4226 9.55061 27.2046 10.5733 27.94C11.4604 28.5776 12.3656 29.2011 13.2562 29.834C13.4091 29.9427 13.5537 30.0677 13.7196 30.201C13.5768 30.2781 13.4581 30.3461 13.3346 30.4088C12.1593 31.0049 11.0285 31.6732 9.98613 32.4827C9.35794 32.9708 8.75053 33.4894 8.32155 34.1672C7.63131 35.2573 7.38699 36.4187 7.90147 37.6587C8.05169 38.0209 8.28088 38.3338 8.60417 38.5651C8.70897 38.6399 8.82653 38.7141 8.94914 38.7432C9.26324 38.8172 9.58327 38.8655 9.90122 38.924L10.8016 38.9234C11.7974 38.8347 12.7037 38.4936 13.5228 37.9283C14.8029 37.0448 15.6653 35.8603 16.0361 34.34C16.3057 33.235 16.3167 32.1289 15.999 31.0289C15.9686 30.927 15.9336 30.8266 15.8939 30.7279C15.8553 30.629 15.8099 30.5329 15.7565 30.4097L17.7978 29.2358L17.8284 29.2619C17.7913 29.3834 17.7518 29.5045 17.7182 29.6271C17.4757 30.513 17.3145 31.4143 17.3724 32.3337C17.4341 33.3134 17.7075 34.2304 18.2811 35.0489C18.7448 35.711 19.8498 35.7356 20.3426 35.0712C20.5175 34.8352 20.687 34.5885 20.8143 34.3251C21.1471 33.6379 21.4553 32.9384 21.7733 32.2438L21.8288 32.1167C21.8059 32.4456 21.7792 32.7345 21.767 33.0236C21.748 33.4752 21.7744 33.9241 21.9288 34.3536C22.0609 34.7212 22.2857 34.9958 22.7066 35.0442C22.9946 35.0771 23.2241 34.9453 23.4357 34.7782C23.7637 34.519 24.0355 34.1959 24.2346 33.8285C24.799 32.7921 25.3785 31.7619 25.89 30.6994C26.4434 29.5502 26.9273 28.3675 27.4412 27.1987L27.5261 26.9914C27.6475 27.4685 27.7321 27.9358 27.888 28.3781C28.0691 28.8914 28.2932 29.3926 28.5372 29.8797C28.6527 30.1098 28.6394 30.2591 28.4794 30.4521C27.8096 31.2596 27.1514 32.0769 26.4927 32.8933C26.3469 33.0735 26.2017 33.257 26.0803 33.4538C26.0066 33.5781 25.9582 33.7157 25.9378 33.8587C25.9174 33.9904 25.9487 34.1249 26.0253 34.234C26.1018 34.3431 26.2176 34.4183 26.3484 34.4439C26.6123 34.5007 26.883 34.52 27.1523 34.5012C28.0717 34.4335 28.9066 34.1108 29.6446 33.564C30.6008 32.8556 30.9078 31.889 30.6762 30.7433C30.6136 30.4325 30.5029 30.1303 30.3951 29.8308C30.3467 29.6957 30.3434 29.601 30.4316 29.4751C31.1961 28.3835 31.8492 27.2254 32.4566 26.0405C32.4806 25.9939 32.5053 25.9473 32.5474 25.8975C32.7443 26.9217 33.0405 27.9088 33.5714 28.8045C33.3006 29.0654 33.0325 29.302 32.79 29.5627C32.2559 30.1368 31.7928 30.7603 31.5511 31.5206C31.4472 31.8483 31.3674 32.1814 31.4137 32.5314C31.4855 33.075 31.9308 33.4283 32.4655 33.3045C33.6097 33.0397 34.5974 32.5005 35.3191 31.5455C35.8047 30.9025 35.849 30.1852 35.6456 29.4338C35.5898 29.2296 35.5236 29.0286 35.4524 28.7944C35.7347 28.7068 36.0099 28.6017 36.2946 28.5367C37.7727 28.1994 39.2348 28.2582 40.6592 28.792C41.4908 29.1037 42.1626 29.6253 42.561 30.4459C43.0476 31.449 42.7786 32.4008 41.8331 33.0349C41.7449 33.094 41.644 33.1406 41.571 33.2145C41.5476 33.2416 41.5301 33.2733 41.5196 33.3076C41.5091 33.3418 41.5059 33.3779 41.5101 33.4134C41.5163 33.45 41.6128 33.4957 41.6683 33.4951C41.9792 33.4927 42.2312 33.3297 42.4732 33.1623C43.0794 32.7428 43.5217 32.1784 43.617 31.4354L43.6357 31.3795L43.6129 30.8956C43.6037 30.8677 43.6197 30.8401 43.6176 30.819C43.4888 29.7369 42.9107 28.8977 42.07 28.2398C41.0962 27.4783 39.9465 27.1648 38.7305 27.1152C37.7442 27.0728 36.7593 27.2244 35.8315 27.5614C35.5652 27.6579 35.3012 27.7722 35.0335 27.88C34.9975 27.815 34.959 27.7526 34.9272 27.6882C34.6523 27.1253 34.3192 26.5874 34.2456 25.942C34.1933 25.4836 34.1292 25.0258 34.2381 24.5725C34.3429 24.1364 34.4795 23.7077 34.608 23.2775C34.6742 23.0561 34.6276 22.932 34.4163 22.8322C34.3426 22.7955 34.264 22.7697 34.1829 22.7556C33.6634 22.6802 33.151 22.7233 32.6478 22.8696C32.4697 22.9216 32.3402 23.0213 32.3007 23.2185C32.2782 23.3316 32.2322 23.4399 32.2001 23.5515C32.0686 24.0156 31.9754 24.4885 31.7628 24.9305C31.2302 26.0394 30.6222 27.1063 30 28.1656C29.9326 28.2799 29.8616 28.3921 29.7767 28.5307C29.5582 28.0735 29.3252 27.6633 29.2545 27.1823C29.1746 26.6385 29.1117 26.0955 29.2471 25.5558C29.3477 25.1532 29.4792 24.758 29.6004 24.3608C29.6577 24.172 29.6312 24.0729 29.4602 23.9734C29.3738 23.9232 29.2762 23.8787 29.1788 23.8642C28.6461 23.783 28.1018 23.8275 27.5893 23.9942C27.4281 24.0464 27.3435 24.1506 27.2942 24.3169C27.1494 24.8073 27.0259 25.3096 26.8225 25.776C25.999 27.6642 25.1517 29.5425 24.3053 31.4205C24.1287 31.8127 23.9217 32.1912 23.7225 32.573C23.6721 32.6698 23.5984 32.755 23.5355 32.8458C23.485 32.7861 23.4654 32.7452 23.4657 32.7042C23.4672 32.4628 23.4384 32.2144 23.4844 31.981C23.6257 31.2753 23.7819 30.5726 23.9529 29.8735C24.0924 29.2958 24.2548 28.7234 24.4095 28.1495C24.4615 27.9575 24.4623 27.7779 24.3243 27.6164C24.0924 27.3459 23.6079 27.2865 23.3206 27.4949L23.1935 27.5668L23.2181 27.3619C23.2787 26.9229 23.2909 26.4853 23.1703 26.0527C23.0201 25.5136 22.6354 25.2034 22.0761 25.2206C21.8154 25.2286 21.5417 25.2731 21.3003 25.3681C20.2853 25.7659 19.5048 26.4704 18.8404 27.318C18.7788 27.3967 18.7025 27.4626 18.6157 27.5122C17.7568 27.9883 16.8953 28.4586 16.0341 28.9306L15.0755 29.4558C14.8184 29.2106 14.5847 28.9562 14.3196 28.7403C13.51 28.0801 12.6874 27.4362 11.8722 26.7833C11.1496 26.2047 10.4495 25.6021 9.91399 24.8358C9.51558 24.2658 9.25878 23.6421 9.23414 22.9373C9.20297 22.0393 9.45769 21.2187 9.91488 20.4548C10.4997 19.4775 11.2974 18.6932 12.1744 17.9828C13.1021 17.2317 14.1056 16.594 15.1455 16.0118C16.6005 15.1975 18.097 14.4767 19.7017 14.0008C21.3469 13.5127 23.0163 13.2334 24.7381 13.4281C25.415 13.5047 26.0723 13.6597 26.6758 13.9907C27.1381 14.2439 27.5172 14.5755 27.6935 15.0939C27.8675 15.6039 27.8622 16.1208 27.7416 16.6388C27.4967 17.688 26.9223 18.5528 26.1994 19.3255C25.0136 20.5923 23.5673 21.4547 21.9389 22.0244C21.0026 22.3524 20.0285 22.5602 19.0399 22.6428C18.2298 22.7108 17.4365 22.639 16.6694 22.3572C16.1614 22.1705 15.7191 21.8849 15.3634 21.4705C15.2999 21.3962 15.2185 21.3158 15.1001 21.3853C14.984 21.4535 14.9635 21.564 15.0024 21.6759C15.0674 21.8617 15.1274 22.0553 15.2286 22.2215C15.4831 22.6387 15.8542 22.9412 16.2627 23.2006C17.0473 23.6997 17.9243 23.8674 18.8336 23.9063C20.2135 23.966 21.5598 23.76 22.8871 23.3898C24.7821 22.8613 26.4297 21.9279 27.7511 20.4554C28.8513 19.2293 29.6372 17.8456 29.8055 16.1748C29.8877 15.3593 29.8002 14.5604 29.4184 13.8164C29.0042 13.0104 28.3458 12.411 27.5585 11.9981C26.4119 11.3969 25.1745 11.0469 23.8974 11.0469H22.6179C21.0711 11.0469 19.5758 11.4901 18.1223 12.0188C17.0221 12.4193 15.9432 12.892 14.8958 13.415C12.615 14.5547 10.4908 15.929 8.74608 17.8186C7.87683 18.76 7.14088 19.7987 6.71753 21.0219C6.58976 21.387 6.47969 21.7582 6.38771 22.134M14.6524 32.8253C14.5535 34.1491 13.9536 35.2223 12.973 36.0915C12.4214 36.5802 11.7888 36.9281 11.0519 37.0505C10.7847 37.0947 10.5113 37.1054 10.2521 36.9946C9.88252 36.8367 9.79969 36.5087 9.79256 36.1592C9.78158 35.6023 9.97663 35.0988 10.2441 34.6196C10.5932 33.995 11.105 33.5188 11.6516 33.0741C12.5125 32.3732 13.4465 31.78 14.403 31.2201L14.4752 31.1904C14.623 31.7367 14.6934 32.2761 14.6524 32.8253ZM22.1212 27.0722C22.0514 27.4949 21.9641 27.918 21.8406 28.3277C21.4137 29.7458 20.8654 31.1201 20.2725 32.4759C20.163 32.7268 20.0036 32.9557 19.8649 33.1935C19.8414 33.23 19.8131 33.2633 19.7809 33.2926C19.6093 33.4621 19.4466 33.4532 19.36 33.2315C19.259 32.9738 19.197 32.698 19.1435 32.4251C19.1076 32.242 19.1162 32.0496 19.1049 31.862C19.1165 30.5278 19.5235 29.3154 20.2141 28.1867C20.4988 27.7212 20.8087 27.2776 21.2822 26.9831C21.4295 26.8915 21.5889 26.821 21.7557 26.7735C22.0081 26.7026 22.163 26.8193 22.1212 27.0722ZM27.2168 33.5642L29.0482 31.4259C29.1245 32.22 27.7746 33.8053 27.2168 33.5642ZM33.0661 32.1253C32.9366 32.1995 32.7956 32.253 32.6629 32.3215C32.5415 32.3845 32.5014 32.3209 32.4979 32.2164C32.4961 32.1441 32.5054 32.0719 32.5255 32.0024C32.7728 31.1302 33.2279 30.3856 33.905 29.78L33.9525 29.7556C34.2747 30.6567 33.9024 31.6461 33.0661 32.1253Z" fill="#F06292"/>
</svg>
