<svg width="50" height="50" viewBox="0 0 50 50" fill="none" xmlns="http://www.w3.org/2000/svg">
<path fill-rule="evenodd" clip-rule="evenodd" d="M14.5834 20.7682C15.972 15.1261 19.4447 12.3047 25 12.3047C33.3334 12.3047 34.375 18.6523 38.5417 19.7103C41.3196 20.4158 43.75 19.3578 45.8334 16.5365C44.4446 22.1785 40.9719 25 35.4167 25C27.0834 25 26.0417 18.6523 21.875 17.5944C19.0971 16.8889 16.6667 17.9468 14.5834 20.7682ZM4.16669 33.4635C5.55535 27.8215 9.028 25 14.5834 25C22.9167 25 23.9584 31.3477 28.125 32.4056C30.9029 33.111 33.3334 32.0531 35.4167 29.2317C34.0279 34.874 30.5554 37.6952 25 37.6952C16.6667 37.6952 15.625 31.3477 11.4584 30.2898C8.68035 29.5842 6.25002 30.6421 4.16669 33.4635Z" fill="#38BDF8"/>
</svg>
