<svg width="50" height="50" viewBox="0 0 50 50" fill="none" xmlns="http://www.w3.org/2000/svg">
<rect x="7" y="10" width="36" height="32" fill="#FBFBFB"/>
<path d="M39.8562 6.25H10.1447C8.15355 6.25 6.53888 7.8899 6.53888 9.9121V40.0879C6.53888 42.1102 8.15355 43.75 10.1447 43.75H39.8562C41.8473 43.75 43.4619 42.1102 43.4619 40.0879V9.9121C43.4619 7.8899 41.8473 6.25 39.8562 6.25ZM27.9571 27.0508H23.3417V40.4542H19.6638V27.0508H15.0485V24.0479H27.9571V27.0508ZM39.8562 38.0444C39.5677 38.7035 39.0702 39.1944 38.486 39.5825C37.9092 39.9415 37.26 40.2198 36.4667 40.3881C35.6735 40.5567 34.8802 40.6373 34.0148 40.6373C33.1494 40.6373 32.2842 40.564 31.4908 40.4102C30.6975 40.2562 29.9835 40.0294 29.3994 39.7217V36.2025C29.3539 36.1658 29.3071 36.1298 29.2625 36.0919L29.3994 36.0596V36.2025C30.0125 36.6969 30.6875 37.0777 31.4258 37.3369C32.1471 37.6152 32.9404 37.7544 33.7335 37.7544C34.2383 37.7544 34.6206 37.7104 34.9596 37.6298C35.3129 37.5421 35.5942 37.4248 35.825 37.2783C36.0556 37.1319 36.2273 36.956 36.3371 36.751C36.4467 36.5458 36.5029 36.3262 36.5029 36.0919C36.5029 35.7548 36.4092 35.4619 36.2287 35.2129C36.0629 34.964 35.8177 34.7296 35.5077 34.5171C35.2192 34.3048 34.8585 34.0996 34.426 33.9019C33.9933 33.7042 33.5533 33.499 33.0558 33.294C31.8298 32.7079 30.8635 32.1221 30.2433 31.3165C29.6158 30.584 29.3058 29.6319 29.3058 28.5331C29.3058 27.6544 29.4717 26.9512 29.8106 26.3358C30.171 25.6767 30.5967 25.1933 31.1808 24.7979C31.7577 24.395 32.4067 24.1021 33.2 23.919C33.9933 23.7358 34.7864 23.6406 35.6519 23.6406C36.5173 23.6406 37.2385 23.6919 37.8875 23.7944C38.5364 23.8969 39.1423 24.0581 39.6904 24.2704V27.7129C39.4379 27.5225 39.1423 27.354 38.825 27.2075C38.486 27.061 38.1544 26.9437 37.8154 26.8485C37.4764 26.7533 37.1375 26.6823 36.8058 26.6363C36.4885 26.59 36.171 26.5673 35.8683 26.5673C35.4283 26.5673 35.0533 26.604 34.7144 26.6846C34.3683 26.7652 34.0798 26.875 33.8489 27.0215C33.6183 27.1679 33.4387 27.3365 33.3081 27.5415C33.1775 27.7467 33.1133 27.9735 33.1133 28.2227C33.1133 28.4937 33.1854 28.7354 33.3298 28.955C33.4739 29.1675 33.6758 29.3725 33.9427 29.5702C34.1806 29.7608 34.5052 29.9512 34.8802 30.1417C35.3129 30.3321 35.7023 30.5225 36.1783 30.7202C36.8273 30.9985 37.4042 31.3062 37.9092 31.5992C38.4139 31.8921 38.8394 32.2362 39.2071 32.6246C39.5967 32.9906 39.8779 33.4302 40.0725 33.9429C40.2673 34.4556 40.3681 35.0342 40.3681 35.7006C40.3681 36.6529 40.1446 37.3852 39.8562 38.0444Z" fill="#3178C6"/>
</svg>
