<svg width="65" height="50" viewBox="0 0 65 50" fill="none" xmlns="http://www.w3.org/2000/svg">
<mask id="path-1-inside-1_124_27" fill="white">
  <path d="M18.3477 50H0V32.0498L8.82031 40.8711L9.17383 41.2246L9.52734 40.8711L18.3477 32.0498V50ZM64.5811 3.19336C64.7984 3.75388 64.9189 4.36269 64.9189 5V45C64.9189 47.7614 62.6804 50 59.9189 50H31.9912V36.6113H44.1201L44.2197 36.2402L47.2998 24.7461L47.4678 24.1172H31.9912V17.2568H60.8135L60.9131 16.8857L64.5811 3.19336ZM9.17383 15.7568L0.0771484 0H18.2705L9.17383 15.7568Z"/>
</mask>

<!-- Preenchimento -->
<path d="M18.3477 50H0V32.0498L8.82031 40.8711L9.17383 41.2246L9.52734 40.8711L18.3477 32.0498V50ZM64.5811 3.19336C64.7984 3.75388 64.9189 4.36269 64.9189 5V45C64.9189 47.7614 62.6804 50 59.9189 50H31.9912V36.6113H44.1201L44.2197 36.2402L47.2998 24.7461L47.4678 24.1172H31.9912V17.2568H60.8135L60.9131 16.8857L64.5811 3.19336ZM9.17383 15.7568L0.0771484 0H18.2705L9.17383 15.7568Z" fill="#fbfbfb"/>

<!-- Cotorno -->
<path d="M18.3477 50V51H19.3477V50H18.3477ZM0 50H-1V51H0V50ZM0 32.0498L0.707146 31.3427L-1 29.6354V32.0498H0ZM8.82031 40.8711L8.11317 41.5782L8.11321 41.5782L8.82031 40.8711ZM9.17383 41.2246L8.46672 41.9317L9.17383 42.6388L9.88093 41.9317L9.17383 41.2246ZM9.52734 40.8711L10.2345 41.5782L10.2345 41.5782L9.52734 40.8711ZM18.3477 32.0498H19.3477V29.6354L17.6405 31.3427L18.3477 32.0498ZM64.5811 3.19336L65.5134 2.83178L64.4069 -0.0212496L63.6151 2.9346L64.5811 3.19336ZM64.9189 5H65.9189H64.9189ZM64.9189 45H65.9189H64.9189ZM31.9912 50H30.9912V51H31.9912V50ZM31.9912 36.6113V35.6113H30.9912V36.6113H31.9912ZM44.1201 36.6113V37.6113H44.8871L45.0859 36.8706L44.1201 36.6113ZM44.2197 36.2402L45.1855 36.4995L45.1856 36.4991L44.2197 36.2402ZM47.2998 24.7461L48.2657 25.0049L48.2659 25.0041L47.2998 24.7461ZM47.4678 24.1172L48.4339 24.3752L48.7699 23.1172H47.4678V24.1172ZM31.9912 24.1172H30.9912V25.1172H31.9912V24.1172ZM31.9912 17.2568V16.2568H30.9912V17.2568H31.9912ZM60.8135 17.2568V18.2568H61.5805L61.7793 17.5161L60.8135 17.2568ZM60.9131 16.8857L61.8789 17.145L61.879 17.1445L60.9131 16.8857ZM9.17383 15.7568L8.30779 16.2568L9.17383 17.7569L10.0399 16.2568L9.17383 15.7568ZM0.0771484 0V-1H-1.65485L-0.78889 0.499978L0.0771484 0ZM18.2705 0L19.1365 0.499978L20.0025 -1H18.2705V0ZM18.3477 50V49H0V50V51H18.3477V50ZM0 50H1V32.0498H0H-1V50H0ZM0 32.0498L-0.707146 32.7569L8.11317 41.5782L8.82031 40.8711L9.52746 40.164L0.707146 31.3427L0 32.0498ZM8.82031 40.8711L8.11321 41.5782L8.46672 41.9317L9.17383 41.2246L9.88093 40.5175L9.52742 40.164L8.82031 40.8711ZM9.17383 41.2246L9.88093 41.9317L10.2345 41.5782L9.52734 40.8711L8.82024 40.164L8.46672 40.5175L9.17383 41.2246ZM9.52734 40.8711L10.2345 41.5782L19.0548 32.7569L18.3477 32.0498L17.6405 31.3427L8.8202 40.164L9.52734 40.8711ZM18.3477 32.0498H17.3477V50H18.3477H19.3477V32.0498H18.3477ZM64.5811 3.19336L63.6487 3.55494C63.8226 4.00342 63.9189 4.48982 63.9189 5H64.9189H65.9189C65.9189 4.23556 65.7742 3.50434 65.5134 2.83178L64.5811 3.19336ZM64.9189 5H63.9189V45H64.9189H65.9189V5H64.9189ZM64.9189 45H63.9189C63.9189 47.2091 62.1281 49 59.9189 49V50V51C63.2327 51 65.9189 48.3137 65.9189 45H64.9189ZM59.9189 50V49H31.9912V50V51H59.9189V50ZM31.9912 50H32.9912V36.6113H31.9912H30.9912V50H31.9912ZM31.9912 36.6113V37.6113H44.1201V36.6113V35.6113H31.9912V36.6113ZM44.1201 36.6113L45.0859 36.8706L45.1855 36.4995L44.2197 36.2402L43.2539 35.981L43.1543 36.3521L44.1201 36.6113ZM44.2197 36.2402L45.1856 36.4991L48.2657 25.0049L47.2998 24.7461L46.3339 24.4873L43.2538 35.9814L44.2197 36.2402ZM47.2998 24.7461L48.2659 25.0041L48.4339 24.3752L47.4678 24.1172L46.5016 23.8592L46.3337 24.4881L47.2998 24.7461ZM47.4678 24.1172V23.1172H31.9912V24.1172V25.1172H47.4678V24.1172ZM31.9912 24.1172H32.9912V17.2568H31.9912H30.9912V24.1172H31.9912ZM31.9912 17.2568V18.2568H60.8135V17.2568V16.2568H31.9912V17.2568ZM60.8135 17.2568L61.7793 17.5161L61.8789 17.145L60.9131 16.8857L59.9473 16.6265L59.8477 16.9976L60.8135 17.2568ZM60.9131 16.8857L61.879 17.1445L65.547 3.45212L64.5811 3.19336L63.6151 2.9346L59.9471 16.627L60.9131 16.8857ZM9.17383 15.7568L10.0399 15.2569L0.943187 -0.499978L0.0771484 0L-0.78889 0.499978L8.30779 16.2568L9.17383 15.7568ZM0.0771484 0V1H18.2705V0V-1H0.0771484V0ZM18.2705 0L17.4045 -0.499978L8.30779 15.2569L9.17383 15.7568L10.0399 16.2568L19.1365 0.499978L18.2705 0Z" fill="currentColor" mask="url(#path-1-inside-1_124_27)"/>
</svg>
